<?xml version="1.0" encoding="iso-8859-1"?>
<!-- Uploaded to: SVG Repo, www.svgrepo.com, Generator: SVG Repo Mixer Tools -->
<svg height="800px" width="800px" version="1.1" id="Layer_1" xmlns="http://www.w3.org/2000/svg" xmlns:xlink="http://www.w3.org/1999/xlink" 
	 viewBox="0 0 511.984 511.984" xml:space="preserve">
<g>
	<path style="fill:#F6BB42;" d="M255.992,85.333c-5.891,0-10.656-4.781-10.656-10.671V10.664C245.336,4.773,250.102,0,255.992,0
		c5.906,0,10.672,4.773,10.672,10.664v63.998C266.664,80.552,261.898,85.333,255.992,85.333z"/>
	<path style="fill:#F6BB42;" d="M255.992,511.984C255.992,511.984,256.008,511.984,255.992,511.984
		c-5.875,0-10.656-4.781-10.656-10.656v-63.997c0-5.906,4.781-10.688,10.672-10.688l0,0c5.891,0,10.656,4.781,10.656,10.688v63.997
		C266.664,507.203,261.898,511.984,255.992,511.984z"/>
</g>
<g>
	<path style="fill:#FFCE54;" d="M135.324,135.316c-4.172,4.164-10.922,4.164-15.078,0L74.982,90.06
		c-4.156-4.164-4.156-10.914,0-15.078c4.172-4.172,10.922-4.172,15.094,0l45.248,45.248
		C139.496,124.394,139.496,131.152,135.324,135.316z"/>
	<path style="fill:#FFCE54;" d="M437.018,437.003L437.018,437.003c-4.172,4.172-10.922,4.172-15.094,0l-45.249-45.25
		c-4.172-4.172-4.172-10.921,0-15.077l0,0c4.172-4.172,10.922-4.172,15.094,0l45.249,45.249
		C441.174,426.081,441.174,432.831,437.018,437.003z"/>
</g>
<g>
	<path style="fill:#F6BB42;" d="M85.342,255.992c0,5.891-4.781,10.664-10.672,10.664H10.672c-5.891,0-10.656-4.773-10.672-10.664
		c0-5.891,4.781-10.664,10.672-10.664H74.67C80.56,245.328,85.342,250.101,85.342,255.992z"/>
	<path style="fill:#F6BB42;" d="M511.984,255.992L511.984,255.992c0,5.891-4.766,10.664-10.656,10.664h-63.997
		c-5.891,0-10.672-4.773-10.672-10.664l0,0c0-5.891,4.781-10.664,10.672-10.664h63.997
		C507.219,245.328,511.984,250.101,511.984,255.992z"/>
</g>
<g>
	<path style="fill:#FFCE54;" d="M135.324,376.676c4.172,4.156,4.172,10.905,0,15.077l-45.248,45.25
		c-4.172,4.172-10.922,4.172-15.094,0c-4.156-4.172-4.156-10.922,0-15.078l45.264-45.249
		C124.402,372.504,131.152,372.504,135.324,376.676z"/>
	<path style="fill:#FFCE54;" d="M437.018,74.974C437.018,74.982,437.018,74.974,437.018,74.974c4.155,4.171,4.155,10.921,0,15.085
		l-45.265,45.256c-4.156,4.164-10.906,4.164-15.078,0l0,0c-4.172-4.164-4.172-10.922,0-15.086l45.249-45.256
		C426.096,70.81,432.846,70.81,437.018,74.974z"/>
	<path style="fill:#FFCE54;" d="M255.992,394.643c-76.45,0-138.651-62.186-138.651-138.651c0-76.458,62.201-138.66,138.651-138.66
		c76.467,0,138.668,62.202,138.668,138.66C394.66,332.458,332.459,394.643,255.992,394.643z"/>
</g>
<path style="fill:#F6BB42;" d="M255.992,106.661c-82.466,0-149.323,66.857-149.323,149.331c0,82.466,66.857,149.339,149.323,149.339
	c82.482,0,149.34-66.873,149.34-149.339C405.332,173.518,338.474,106.661,255.992,106.661z M346.505,346.489
	c-24.171,24.187-56.311,37.498-90.513,37.498c-34.187,0-66.326-13.312-90.497-37.498c-24.171-24.155-37.499-56.311-37.499-90.497
	s13.328-66.334,37.499-90.505c24.171-24.178,56.311-37.491,90.497-37.491c34.202,0,66.342,13.313,90.513,37.491
	c24.171,24.171,37.483,56.319,37.483,90.505C383.988,290.179,370.676,322.334,346.505,346.489z"/>
</svg>